REM DIRINDEX 1\8,1\2\11,1\3\12,1\3\14,1\5\15,1\5\16,1\6\17,1\6\18,1\4\19,1\4\20,1\4\21,1\4\22,1\7\23,1\7\24,1\7\25,1\2\9\26,1\2\9\27,1\2\10\28,1\2\10\29,1\2\10\30,1\2\10\31,1\2\10\32,1\3\13\33,1\3\13\34,1\3\13\35
REM DIRNAME folder01,folder02,folder03,folder04,folder05,folder06,folder07,folder08,folder09,folder10,folder11,folder12,folder13,folder14,folder15,folder16,folder17,folder18,folder19,folder20,folder21,folder22,folder23,folder24,folder25,folder26,folder27,folder28,folder29,folder30,folder31,folder32,folder33,folder34,folder35
TITLE ""
FILE "145 145_—á•¶UNIT4_SET5.mp3" MP3
  TRACK 01 AUDIO
    TITLE "22:cjc123_3647"
    INDEX 01 00:00:00
  TRACK 02 AUDIO
    TITLE "0:"
    INDEX 01 00:02:55
  TRACK 03 AUDIO
    TITLE "19:cjc123_3648"
    INDEX 01 00:03:35
  TRACK 04 AUDIO
    TITLE "0:"
    INDEX 01 00:07:09
  TRACK 05 AUDIO
    TITLE "20:cjc123_3649"
    INDEX 01 00:07:52
  TRACK 06 AUDIO
    TITLE "0:"
    INDEX 01 00:11:29
  TRACK 07 AUDIO
    TITLE "21:cjc123_3650"
    INDEX 01 00:11:60
  TRACK 08 AUDIO
    TITLE "0:"
    INDEX 01 00:15:36
  TRACK 09 AUDIO
    TITLE "19:cjc123_3651"
    INDEX 01 00:16:12
  TRACK 10 AUDIO
    TITLE "0:"
    INDEX 01 00:22:07
  TRACK 11 AUDIO
    TITLE "20:cjc123_3652"
    INDEX 01 00:22:42
  TRACK 12 AUDIO
    TITLE "0:"
    INDEX 01 00:27:26
  TRACK 13 AUDIO
    TITLE "21:cjc123_3653"
    INDEX 01 00:27:55
  TRACK 14 AUDIO
    TITLE "0:"
    INDEX 01 00:33:50
  TRACK 15 AUDIO
    TITLE "19:cjc123_3654"
    INDEX 01 00:34:34
  TRACK 16 AUDIO
    TITLE "0:"
    INDEX 01 00:39:37
  TRACK 17 AUDIO
    TITLE "20:cjc123_3655"
    INDEX 01 00:39:72
  TRACK 18 AUDIO
    TITLE "0:"
    INDEX 01 00:43:54
  TRACK 19 AUDIO
    TITLE "21:cjc123_3656"
    INDEX 01 00:44:11
  TRACK 20 AUDIO
    TITLE "0:"
    INDEX 01 00:49:14
  TRACK 21 AUDIO
    TITLE "19:cjc123_3657"
    INDEX 01 00:49:63
  TRACK 22 AUDIO
    TITLE "0:"
    INDEX 01 00:53:29
  TRACK 23 AUDIO
    TITLE "20:cjc123_3658"
    INDEX 01 00:53:68
  TRACK 24 AUDIO
    TITLE "0:"
    INDEX 01 00:57:35
  TRACK 25 AUDIO
    TITLE "21:cjc123_3659"
    INDEX 01 00:57:68
  TRACK 26 AUDIO
    TITLE "0:"
    INDEX 01 01:01:34
  TRACK 27 AUDIO
    TITLE "19:cjc123_3660"
    INDEX 01 01:02:08
  TRACK 28 AUDIO
    TITLE "0:"
    INDEX 01 01:06:51
  TRACK 29 AUDIO
    TITLE "20:cjc123_3661"
    INDEX 01 01:07:14
  TRACK 30 AUDIO
    TITLE "0:"
    INDEX 01 01:11:27
  TRACK 31 AUDIO
    TITLE "21:cjc123_3662"
    INDEX 01 01:11:56
  TRACK 32 AUDIO
    TITLE "0:"
    INDEX 01 01:16:24
  TRACK 33 AUDIO
    TITLE "19:cjc123_3663"
    INDEX 01 01:16:73
  TRACK 34 AUDIO
    TITLE "0:"
    INDEX 01 01:20:06
  TRACK 35 AUDIO
    TITLE "20:cjc123_3664"
    INDEX 01 01:20:42
  TRACK 36 AUDIO
    TITLE "0:"
    INDEX 01 01:24:30
  TRACK 37 AUDIO
    TITLE "21:cjc123_3665"
    INDEX 01 01:24:61
  TRACK 38 AUDIO
    TITLE "0:"
    INDEX 01 01:27:67
  TRACK 39 AUDIO
    TITLE "19:cjc123_3666"
    INDEX 01 01:28:45
  TRACK 40 AUDIO
    TITLE "0:"
    INDEX 01 01:34:16
  TRACK 41 AUDIO
    TITLE "20:cjc123_3667"
    INDEX 01 01:34:59
  TRACK 42 AUDIO
    TITLE "0:"
    INDEX 01 01:42:67
  TRACK 43 AUDIO
    TITLE "21:cjc123_3668"
    INDEX 01 01:43:25
  TRACK 44 AUDIO
    TITLE "0:"
    INDEX 01 01:48:71
  TRACK 45 AUDIO
    TITLE "19:cjc123_3669"
    INDEX 01 01:49:61
  TRACK 46 AUDIO
    TITLE "0:"
    INDEX 01 01:55:36
  TRACK 47 AUDIO
    TITLE "20:cjc123_3670"
    INDEX 01 01:55:69
  TRACK 48 AUDIO
    TITLE "0:"
    INDEX 01 02:02:30
  TRACK 49 AUDIO
    TITLE "21:cjc123_3671"
    INDEX 01 02:02:60
  TRACK 50 AUDIO
    TITLE "0:"
    INDEX 01 02:08:33
  TRACK 51 AUDIO
    TITLE "19:cjc123_3672"
    INDEX 01 02:09:11
  TRACK 52 AUDIO
    TITLE "0:"
    INDEX 01 02:13:01
  TRACK 53 AUDIO
    TITLE "20:cjc123_3673"
    INDEX 01 02:13:36
  TRACK 54 AUDIO
    TITLE "0:"
    INDEX 01 02:17:00
  TRACK 55 AUDIO
    TITLE "21:cjc123_3674"
    INDEX 01 02:17:30
  TRACK 56 AUDIO
    TITLE "0:"
    INDEX 01 02:21:20
  TRACK 57 AUDIO
    TITLE "19:cjc123_3675"
    INDEX 01 02:22:00
  TRACK 58 AUDIO
    TITLE "0:"
    INDEX 01 02:25:37
  TRACK 59 AUDIO
    TITLE "20:cjc123_3676"
    INDEX 01 02:26:07
  TRACK 60 AUDIO
    TITLE "0:"
    INDEX 01 02:29:33
  TRACK 61 AUDIO
    TITLE "21:cjc123_3677"
    INDEX 01 02:29:66
  TRACK 62 AUDIO
    TITLE "0:"
    INDEX 01 02:33:27
  TRACK 63 AUDIO
    TITLE "19:cjc123_3678"
    INDEX 01 02:34:13
  TRACK 64 AUDIO
    TITLE "0:"
    INDEX 01 02:39:00
  TRACK 65 AUDIO
    TITLE "20:cjc123_3679"
    INDEX 01 02:39:33
  TRACK 66 AUDIO
    TITLE "0:"
    INDEX 01 02:45:40
  TRACK 67 AUDIO
    TITLE "21:cjc123_3680"
    INDEX 01 02:45:69
  TRACK 68 AUDIO
    TITLE "0:"
    INDEX 01 02:50:55
  TRACK 69 AUDIO
    TITLE "19:cjc123_3681"
    INDEX 01 02:51:40
  TRACK 70 AUDIO
    TITLE "0:"
    INDEX 01 02:57:41
  TRACK 71 AUDIO
    TITLE "20:cjc123_3682"
    INDEX 01 02:58:03
  TRACK 72 AUDIO
    TITLE "0:"
    INDEX 01 03:05:09
  TRACK 73 AUDIO
    TITLE "21:cjc123_3683"
    INDEX 01 03:05:41
  TRACK 74 AUDIO
    TITLE "0:"
    INDEX 01 03:11:41
  TRACK 75 AUDIO
    TITLE "19:cjc123_3684"
    INDEX 01 03:12:17
  TRACK 76 AUDIO
    TITLE "0:"
    INDEX 01 03:16:56
  TRACK 77 AUDIO
    TITLE "20:cjc123_3685"
    INDEX 01 03:17:10
  TRACK 78 AUDIO
    TITLE "0:"
    INDEX 01 03:20:68
  TRACK 79 AUDIO
    TITLE "21:cjc123_3686"
    INDEX 01 03:21:20
  TRACK 80 AUDIO
    TITLE "0:"
    INDEX 01 03:25:57
  TRACK 81 AUDIO
    TITLE "19:cjc123_3687"
    INDEX 01 03:26:31
  TRACK 82 AUDIO
    TITLE "0:"
    INDEX 01 03:32:57
  TRACK 83 AUDIO
    TITLE "20:cjc123_3688"
    INDEX 01 03:33:25
  TRACK 84 AUDIO
    TITLE "0:"
    INDEX 01 03:39:30
  TRACK 85 AUDIO
    TITLE "21:cjc123_3689"
    INDEX 01 03:39:59
  TRACK 86 AUDIO
    TITLE "0:"
    INDEX 01 03:46:14
  TRACK 87 AUDIO
    TITLE "19:cjc123_3690"
    INDEX 01 03:46:71
  TRACK 88 AUDIO
    TITLE "0:"
    INDEX 01 03:50:24
  TRACK 89 AUDIO
    TITLE "20:cjc123_3691"
    INDEX 01 03:50:59
  TRACK 90 AUDIO
    TITLE "0:"
    INDEX 01 03:54:29
  TRACK 91 AUDIO
    TITLE "21:cjc123_3692"
    INDEX 01 03:54:55
  TRACK 92 AUDIO
    TITLE "0:"
    INDEX 01 03:58:07
